<svg xmlns="http://www.w3.org/2000/svg" width="14" height="14" viewBox="0 0 14 14">
  <title>
    3CF726F5-2D61-4AA0-881C-02ACD3124AA4
  </title>
  <path d="M7 14L1.2 7.75c-1.634-1.807-1.592-4.696.083-6.456C2.853-.353 5.347-.444 7 1.114c1.677-1.558 4.19-1.467 5.76.225 1.635 1.76 1.656 4.626.043 6.41L7 14zM1.724 7.342l5.3 5.71 5.32-5.732c1.403-1.512 1.403-3.995 0-5.507C10.94.3 8.656.3 7.233 1.813L7 2.06l-.23-.247C5.37.28 3.086.28 1.66 1.768.236 3.258.236 5.74 1.618 7.275l.042.022.063.045z" fill-rule="evenodd"/>
  <path d="M5.204 11.05c-1-1.082-2.284-2.465-2.852-3.073-.765-.82-1.087-1.212-1.246-1.516-.61-1.16-.634-2.577-.06-3.755.29-.595 1.057-1.374 1.62-1.647C4.02.403 5.48.638 6.595 1.69l.402.378.317-.3c.438-.414.895-.694 1.44-.88.386-.133.567-.16 1.06-.158.974.003 1.706.32 2.432 1.05.473.477.852 1.162 1.005 1.815.102.438.118 1.444.03 1.83-.114.49-.413 1.167-.665 1.5-.14.183-1.427 1.596-2.862 3.14-1.436 1.543-2.637 2.84-2.67 2.88-.044.055-.534-.44-1.88-1.894z" stroke="#000"/>
  <path d="M4.034 10.764C2.404 9.002.954 7.396.817 7.194.342 6.502.03 5.462.03 4.575c0-.81.256-1.758.66-2.447C.973 1.642 1.814.812 2.283.554 2.978.17 3.4.064 4.242.064c1.07 0 1.55.18 2.698 1.005.052.037.148-.003.305-.127 1.264-1 2.854-1.175 4.293-.475.408.2.607.348 1.044.78.748.744 1.097 1.4 1.303 2.456.228 1.164-.047 2.533-.702 3.492-.138.202-1.52 1.733-3.07 3.4-1.548 1.67-2.883 3.11-2.965 3.202L7 13.966l-2.966-3.202z" stroke="#000" stroke-width=".059"/>
</svg>
